<?xml version="1.0" encoding="UTF-8"?>
<!DOCTYPE svg PUBLIC "-//W3C//DTD SVG 1.1//EN" "http://www.w3.org/Graphics/SVG/1.1/DTD/svg11.dtd">
<!-- Creator: CorelDRAW -->
<svg xmlns="http://www.w3.org/2000/svg" xml:space="preserve" width="25mm" height="13.2408mm" style="shape-rendering:geometricPrecision; text-rendering:geometricPrecision; image-rendering:optimizeQuality; fill-rule:evenodd; clip-rule:evenodd"
viewBox="0 0 7.54712 3.9972"
 xmlns:xlink="http://www.w3.org/1999/xlink">
 <defs>
  <style type="text/css">
   <![CDATA[
    .fil2 {fill:#00A0E3}
    .fil5 {fill:#2B2A29}
    .fil3 {fill:#E5097F}
    .fil4 {fill:#FFED00}
    .fil7 {fill:#2B2A29;fill-rule:nonzero}
    .fil0 {fill:#00A0E3;fill-rule:nonzero}
    .fil1 {fill:#2B2A29;fill-rule:nonzero}
    .fil6 {fill:black;fill-rule:nonzero}
   ]]>
  </style>
 </defs>
 <g id="Layer_x0020_1">
  <metadata id="CorelCorpID_0Corel-Layer"/>
  <g id="_290066784">
   <path id="_290068944" class="fil0" d="M6.36183 1.80391l0.203652 0 0 0.0791241 -0.130958 0 0 0.135456 0.12012 0 0 0.0777354 -0.12012 0 0 0.166127 0.130958 0 0 0.0777052 -0.203652 0 0 -0.536148zm0.509884 0.317251c0,0.0408752 -0.00153961,0.0753505 -0.00464903,0.103396 -0.00307923,0.0280451 -0.00857353,0.0513204 -0.0164829,0.0698562 -0.00790939,0.0185357 -0.0204376,0.0330262 -0.0376451,0.0435016 -0.0171773,0.0104452 -0.0395167,0.0159093 -0.0670185,0.0163924 -0.0357432,0 -0.0628826,-0.00809052 -0.0814486,-0.0242414 -0.0185659,-0.0161508 -0.0309432,-0.0403922 -0.0371319,-0.0727241 -0.00618864,-0.0323017 -0.00926787,-0.0743845 -0.00926787,-0.126188l0 -0.103365c0,-0.0508676 0.00316979,-0.0936447 0.00953957,-0.128361 0.00633958,-0.0346866 0.018898,-0.0622487 0.0376451,-0.0826863 0.0187169,-0.0204376 0.0456148,-0.0306715 0.0806637,-0.0306715 0.0340224,0 0.0602261,0.0103547 0.078641,0.0310338 0.0183848,0.0206791 0.0306715,0.0485733 0.0368602,0.0837731 0.00618864,0.0351696 0.00963013,0.0798486 0.0102943,0.134007l0 0.0862787zm-0.0747467 0.0477884l0 -0.185388c0,-0.0337507 -0.00371319,-0.0605883 -0.0110792,-0.0805731 -0.00739618,-0.0199546 -0.0207093,-0.0301583 -0.0399696,-0.0306413 -0.0347168,0 -0.0525884,0.0342036 -0.0536148,0.102671l0 0.193931c0,0.0684373 0.0178716,0.102671 0.0536148,0.102671 0.0340224,0 0.0510487,-0.0342338 0.0510487,-0.102671zm0.389764 -0.0477884c0,0.0408752 -0.00153961,0.0753505 -0.00464903,0.103396 -0.00307923,0.0280451 -0.00857353,0.0513204 -0.0164829,0.0698562 -0.00790939,0.0185357 -0.0204678,0.0330262 -0.0376451,0.0435016 -0.0171773,0.0104452 -0.0395167,0.0159093 -0.0670185,0.0163924 -0.0357432,0 -0.0629128,-0.00809052 -0.0814788,-0.0242414 -0.0185357,-0.0161508 -0.030913,-0.0403922 -0.0371017,-0.0727241 -0.00618864,-0.0323017 -0.00929806,-0.0743845 -0.00929806,-0.126188l0 -0.103365c0,-0.0508676 0.00319998,-0.0936447 0.00953957,-0.128361 0.00636977,-0.0346866 0.0189282,-0.0622487 0.0376451,-0.0826863 0.0187471,-0.0204376 0.0456148,-0.0306715 0.0806939,-0.0306715 0.0340224,0 0.0602261,0.0103547 0.0786108,0.0310338 0.0183848,0.0206791 0.0306715,0.0485733 0.0368602,0.0837731 0.00618864,0.0351696 0.00963013,0.0798486 0.0103245,0.134007l0 0.0862787zm-0.0747467 0.0477884l0 -0.185388c0,-0.0337507 -0.00371319,-0.0605883 -0.0110792,-0.0805731 -0.00739618,-0.0199546 -0.0207395,-0.0301583 -0.0399696,-0.0306413 -0.0347168,0 -0.0525884,0.0342036 -0.0536148,0.102671l0 0.193931c0,0.0684373 0.0178716,0.102671 0.0536148,0.102671 0.0340224,0 0.0510487,-0.0342338 0.0510487,-0.102671zm0.435137 0.30584l-0.0726939 0 0 -0.134731 -0.174791 0 0 0.134731 -0.0726939 0 0 -0.216723 0.0237282 0c0.00618864,-0.00857353 0.0118339,-0.0281659 0.0169961,-0.0588374 0.00516223,-0.0306413 0.00920749,-0.0656902 0.0121358,-0.105147 0.0028981,-0.0394564 0.00437733,-0.0758033 0.00437733,-0.109071l0 -0.181101 0.231999 0 0 0.454156 0.0309432 0 0 0.216723zm-0.103637 -0.216723l0 -0.372164 -0.0866108 0 0 0.138324c0,0.0394262 -0.00283772,0.0814788 -0.00851316,0.126158 -0.00567544,0.0447092 -0.0136754,0.0805731 -0.0239697,0.107682l0.119094 0z"/>
   <g>
    <path id="_290068248" class="fil0" d="M2.97843 2.33931l-0.237131 0.143667c-0.0208301,-0.0393658 -0.0380979,-0.0801505 -0.0522563,-0.122626 -0.0139471,-0.0424752 -0.0245734,-0.0862183 -0.0318791,-0.131169 -0.00727543,-0.0451922 -0.0110188,-0.0907768 -0.0110188,-0.137207 0,-0.0372526 0.00250565,-0.0759844 0.00769807,-0.116165 0.00833203,-0.0601657 0.0231244,-0.119939 0.0447695,-0.179259 0.0214338,-0.0593506 0.0497506,-0.115743 0.0845278,-0.168844 0.0349583,-0.0531016 0.0757731,-0.100347 0.122837,-0.141584 0.0395469,-0.0347771 0.0801505,-0.0633053 0.121599,-0.0855542 0.0412073,-0.0222791 0.0832599,-0.0393658 0.125946,-0.0510186 0.0426865,-0.0116528 0.0866108,-0.0197735 0.131561,-0.0241508 0.0449809,-0.00437733 0.0937051,-0.00646034 0.14575,-0.00646034l0.130958 0 0.0299772 0.230067 -0.204859 0c-0.0934938,0 -0.172799,0.0166641 -0.23858,0.049962 -0.0655996,0.0333281 -0.116829,0.0801505 -0.153448,0.140316 -0.0364375,0.0599544 -0.060377,0.130746 -0.0712147,0.211742 -0.00519242,0.0355922 -0.00769807,0.0701581 -0.00769807,0.103697 0,0.0990786 0.0208301,0.194021 0.06246,0.284587zm0.457205 0l-0.267138 0 0.105992 -0.758878 0.267319 0 -0.106173 0.758878zm0.317824 0l0.121358 -0.225901 -0.216301 -0.794471 0.309794 0 0.0876372 0.428043 0.00353205 0 0.182399 -0.428043 0.287304 0 -0.493431 1.02037 -0.282293 0zm0.977775 0l-0.267319 0 0.143667 -1.02037 0.267319 0 -0.143667 1.02037zm0.380798 -0.570864l0.212587 0.570864 -0.31876 0 -0.193418 -0.560872 0.306051 -0.459499 0.300828 0 -0.307289 0.449507zm0.866229 0.570864l-0.0462488 0c-0.0759844,0 -0.145116,-0.0135244 -0.207153,-0.0406035 -0.0622487,-0.0270489 -0.11535,-0.0649355 -0.159878,-0.113448 -0.0443469,-0.0487242 -0.0782788,-0.105147 -0.101403,-0.169267 -0.0233055,-0.0641204 -0.0349583,-0.132195 -0.0349583,-0.204044 0,-0.0364375 0.00205282,-0.0676524 0.00643015,-0.0934636 0.0102037,-0.0732977 0.0329055,-0.139924 0.0680751,-0.199878 0.0351998,-0.0601657 0.086007,-0.108467 0.152422,-0.144905 0.0662034,-0.0364375 0.14738,-0.0547619 0.243772,-0.0547619l0.208844 0 0.0299772 0.230067 -0.208603 0c-0.0300074,0 -0.0593506,0.00332073 -0.0876674,0.00999239 -0.0285281,0.00667166 -0.0564223,0.0245734 -0.0836825,0.0532827 -0.0275017,0.0287394 -0.0451922,0.0720298 -0.0535242,0.130143 -0.00247546,0.0189282 -0.00374337,0.0372526 -0.00374337,0.0549733 0,0.0432903 0.00730562,0.0841052 0.0218565,0.121992 0.0147924,0.0380979 0.0364375,0.0712147 0.0653883,0.0997126 0.0287093,0.0285281 0.0647543,0.0508072 0.107833,0.0670487 0.0431092,0.0162414 0.0916221,0.0243621 0.14575,0.0243621 0.00332073,0 0.00833203,-0.000211319 0.0151848,-0.000633958 0.00688298,-0.000422639 0.0122867,-0.000633958 0.0162414,-0.000633958l-0.0949126 0.230067z"/>
    <path id="_290067960" class="fil1" d="M3.47811 3.8423l-0.267319 0 0.111154 -0.790335 -0.281055 0 -0.0911994 0.645641c-0.000422639,0.0120452 -0.00187169,0.0284979 -0.00437733,0.048694 -0.00250565,0.0204074 -0.00395469,0.0355922 -0.00434714,0.0460073 0,0.0189584 0.00166037,0.0356224 0.00476978,0.0499922l-0.263576 0.154897c-0.0122867,-0.0339319 -0.0185357,-0.0730864 -0.0185357,-0.117433 0,-0.0293734 0.00292828,-0.065177 0.00854334,-0.10723l0.133886 -0.950606 0.815693 0 -0.143637 1.02037zm0.491439 0l-0.267108 0 0.105962 -0.758878 0.267319 0 -0.0376752 0.26898c0.058294,-0.0281055 0.113479,-0.0622487 0.165946,-0.102218 0.0524676,-0.0399696 0.0813882,-0.0803618 0.0866108,-0.120965 0,-0.0335394 -0.0106264,-0.0547619 -0.0316677,-0.0633053 -0.0212225,-0.00854334 -0.0505959,-0.0131018 -0.0882712,-0.0139471l-0.407213 0 0.095124 -0.230036 0.41473 0c0.0537053,0 0.0999239,0.00624902 0.138656,0.0185055 0.0387318,0.0122867 0.0697354,0.0291621 0.0930711,0.0505959 0.0233055,0.0214338 0.0401809,0.0460073 0.0508072,0.0739014 0.0105962,0.0279244 0.0158188,0.0581129 0.0158188,0.0905957 0,0.0151848 -0.00123773,0.0310036 -0.00374337,0.047245 -0.00564525,0.0412073 -0.0198037,0.0836825 -0.0426865,0.127003 -0.0227017,0.0435016 -0.056211,0.0872448 -0.100347,0.13138 -0.0443469,0.0443167 -0.101403,0.0878485 -0.171139,0.130928 -0.0697354,0.0433205 -0.153871,0.084558 -0.252768,0.124316l-0.0314262 0.225901zm0.790214 -1.02037l0.267108 0 -0.048694 0.347047 0.346021 -0.347047 0.255032 0 -0.143667 1.02037 -0.26753 0 0.0911994 -0.644796 -0.00229433 0 -0.331228 0.343726 -0.0424752 0.30107 -0.267138 0 0.143667 -1.02037zm1.71296 1.02037l-0.267319 0 0.0661732 -0.468465 -0.281055 0 -0.0462186 0.32356c-0.000422639,0.0122565 -0.00187169,0.0284979 -0.00437733,0.0489054 -0.00250565,0.0201961 -0.00395469,0.0355922 -0.00434714,0.0460073 0,0.0189584 0.00166037,0.0356224 0.00476978,0.0499922l-0.263576 0.154897c-0.0122867,-0.0339319 -0.0185357,-0.0730864 -0.0185357,-0.117433 0,-0.0293734 0.00292828,-0.065177 0.00854334,-0.10723l0.133886 -0.950606 0.267319 0 -0.0449809 0.32187 0.281055 0 0.0451922 -0.32187 0.267108 0 -0.143637 1.02037zm1.04984 -0.790335l-0.284828 0 -0.110973 0.790335 -0.26753 0 0.111396 -0.790335 -0.284828 0 0.0949428 -0.230036 0.711845 0 0.0299772 0.230036z"/>
   </g>
   <g>
    <path id="_290067648" class="fil2" d="M1.50743 1.17959c-0.348345,0.332134 -0.598457,0.975481 -0.436043,1.63489 0.0997126,0.404858 0.347953,0.75438 0.661158,0.984115 0.0643317,0.0472148 0.258081,0.173584 0.341372,0.197372 -0.100739,-0.00519242 -0.343092,-0.10732 -0.436888,-0.147984 -0.413099,-0.178927 -0.734335,-0.45168 -1.00908,-0.772312 -0.539951,-0.630155 -0.780795,-1.63284 -0.526246,-2.50323 0.100226,-0.34276 0.14406,-0.348919 0.228919,-0.572434 0.03523,0.0227319 0.111426,0.100799 0.148376,0.139622 0.0517129,0.0542789 0.0929202,0.0991088 0.147531,0.149614 0.10892,0.100739 0.19538,0.195621 0.296693,0.297327 0.0978409,0.098173 0.19535,0.186203 0.292406,0.290172 0.0493884,0.0528902 0.267047,0.254489 0.291802,0.302851z"/>
    <path id="_290070336" class="fil3" d="M1.95211 2.2728c-0.0463393,0.152059 -0.521295,0.654155 -0.114414,1.34031 0.0528299,0.0890863 0.0940372,0.13606 0.162142,0.203803 0.116316,0.115773 0.150942,0.119486 0.207576,0.172316 -0.143667,-0.0290413 -0.350549,-0.159214 -0.44682,-0.230429 -0.548283,-0.405613 -0.824176,-1.1295 -0.634592,-1.81846 0.0196829,-0.0715769 0.0824146,-0.255787 0.125856,-0.321055 0.0178414,-0.0267772 0.00739618,-0.0106867 0.015698,-0.0214338 0.0632751,0.0356526 0.563619,0.565491 0.684554,0.674954z"/>
    <path id="_290062776" class="fil4" d="M2.24944 2.98407c-0.0283168,0.0708524 -0.0758939,0.126188 -0.108286,0.199848 -0.123863,0.281568 -0.0278942,0.617657 0.20818,0.813278 -0.117222,-0.0337809 -0.245161,-0.143909 -0.315258,-0.214489 -0.330504,-0.332617 -0.390971,-0.783542 -0.19384,-1.20832 0.0397884,0.0244225 0.38913,0.37313 0.409205,0.409688z"/>
    <path id="_290062632" class="fil5" d="M2.44367 3.41519c-0.0418413,0.0940674 -0.0982636,0.128905 -0.10252,0.27707 -0.00443771,0.153569 0.0423243,0.192391 0.0988371,0.296602 -0.102731,-0.0361356 -0.223908,-0.194837 -0.26741,-0.321689 -0.0417507,-0.12178 -0.0591695,-0.401296 0.0317885,-0.48374l0.239304 0.231757z"/>
   </g>
   <g>
    <path id="_290067384" class="fil6" d="M2.42568 1.61623l-0.0458865 0 0 0 -0.000362262 -0.0143093 -0.00111697 -0.0141282 -0.00181131 -0.0139773 -0.00247546 -0.0136754 -0.00316979 -0.0134339 -0.00383394 -0.0132226 -0.00449809 -0.0129207 -0.00507167 -0.0126792 -0.00570563 -0.0123169 -0.00624902 -0.0120452 -0.00688298 -0.0116829 -0.00739618 -0.0113811 -0.00790939 -0.0109584 -0.00845278 -0.0105358 -0.0089358 -0.0101735 -0.009449 -0.0097207 -0.00990183 -0.00926787 -0.0102943 -0.00881504 -0.0107773 -0.00833203 -0.0111396 -0.00781882 -0.0115622 -0.00727543 -0.0119245 -0.00676222 -0.0122867 -0.00621883 -0.0125584 -0.00561506 -0.0128905 -0.00501129 -0.0132226 -0.00437733 -0.0134943 -0.00380375 -0.0137358 -0.0031396 -0.0139773 -0.00244527 -0.014249 -0.00181131 -0.0144301 -0.00108679 -0.0146112 -0.000362262 0 -0.0460676 0.0169056 0.000422639 0.0167244 0.00126792 0.0164829 0.00205282 0.0162112 0.00286791 0.0159697 0.00362262 0.0156075 0.00440752 0.0153358 0.00510186 0.0150037 0.00585657 0.0146112 0.00652072 0.0142188 0.00718486 0.0137961 0.00778863 0.0134339 0.00848297 0.0129509 0.00908674 0.0124678 0.00966032 0.0119848 0.0102037 0.0114716 0.0107773 0.0109584 0.0112905 0.0103848 0.0118037 0.00984145 0.0122867 0.00923768 0.0127697 0.00860372 0.0131924 0.00796976 0.013615 0.0073358 0.0140377 0.00667166 0.0144301 0.00591695 0.0147924 0.00522261 0.0150942 0.00449809 0.0154565 0.00371319 0.0157886 0.0028981 0.0160301 0.00211319 0.0162716 0.00129811 0.0164829 0.000422639 0.0167244 0 0zm-0.330262 0.325372l0 -0.0460676 0 0 0.0146112 -0.000362262 0.0144301 -0.00108679 0.014249 -0.00181131 0.0139773 -0.00244527 0.0137358 -0.0031396 0.0134943 -0.00380375 0.0132226 -0.00437733 0.0128905 -0.00501129 0.0125584 -0.00561506 0.0122867 -0.00621883 0.0119245 -0.00676222 0.0115622 -0.00727543 0.0111396 -0.00781882 0.0107773 -0.00833203 0.0102943 -0.00881504 0.00990183 -0.00926787 0.009449 -0.0097207 0.0089358 -0.0101735 0.00845278 -0.0105358 0.00790939 -0.0109584 0.00739618 -0.0113811 0.00688298 -0.0116829 0.00624902 -0.0120452 0.00570563 -0.0123169 0.00507167 -0.0126792 0.00449809 -0.0129207 0.00383394 -0.0132226 0.00316979 -0.0134339 0.00247546 -0.0136754 0.00181131 -0.0139773 0.00111697 -0.0141282 0.000362262 -0.0143093 0.0458865 0 -0.000422639 0.0167244 -0.00129811 0.0164829 -0.00211319 0.0162716 -0.0028981 0.0160301 -0.00371319 0.0157886 -0.00449809 0.0154565 -0.00522261 0.0150942 -0.00591695 0.0147924 -0.00667166 0.0144301 -0.0073358 0.0140377 -0.00796976 0.013615 -0.00860372 0.0131924 -0.00923768 0.0127697 -0.00984145 0.0122867 -0.0103848 0.0118037 -0.0109584 0.0112905 -0.0114716 0.0107773 -0.0119848 0.0102037 -0.0124678 0.00966032 -0.0129509 0.00908674 -0.0134339 0.00848297 -0.0137961 0.00778863 -0.0142188 0.00718486 -0.0146112 0.00652072 -0.0150037 0.00585657 -0.0153358 0.00510186 -0.0156075 0.00440752 -0.0159697 0.00362262 -0.0162112 0.00286791 -0.0164829 0.00205282 -0.0167244 0.00126792 -0.0169056 0.000422639 0 0zm-0.330292 -0.325372l0.0458865 0 0 0 0.000362262 0.0143093 0.00111697 0.0141282 0.00181131 0.0139773 0.00247546 0.0136754 0.00316979 0.0134339 0.00383394 0.0132226 0.0044679 0.0129207 0.00510186 0.0126792 0.00567544 0.0123169 0.00627921 0.0120452 0.00685279 0.0116829 0.00742637 0.0113811 0.00790939 0.0109584 0.00845278 0.0105358 0.00896598 0.0102037 0.00938862 0.00969051 0.00987164 0.00926787 0.0103547 0.00881504 0.0107773 0.00833203 0.0111396 0.00781882 0.011532 0.00727543 0.0119245 0.00676222 0.0123169 0.00621883 0.0125584 0.00561506 0.0128905 0.00501129 0.0132226 0.00437733 0.0135244 0.00380375 0.0137056 0.0031396 0.0140075 0.00244527 0.0142188 0.00181131 0.0144301 0.00108679 0.0146414 0.000362262 0 0.0460676 -0.0169357 -0.000422639 -0.0167244 -0.00126792 -0.0164527 -0.00205282 -0.0162414 -0.00286791 -0.0159395 -0.00362262 -0.0156376 -0.00440752 -0.0153358 -0.00510186 -0.0150037 -0.00585657 -0.0146112 -0.00652072 -0.0141886 -0.00718486 -0.0138565 -0.00778863 -0.0134037 -0.00848297 -0.0129509 -0.00908674 -0.0124678 -0.00966032 -0.0119848 -0.0102037 -0.0115018 -0.0107773 -0.0109584 -0.0113207 -0.0103547 -0.0117735 -0.00984145 -0.0122867 -0.00923768 -0.0127697 -0.00863391 -0.0131924 -0.00793957 -0.013615 -0.00736599 -0.0140377 -0.00664147 -0.0144301 -0.00594713 -0.0147924 -0.00519242 -0.0150942 -0.00449809 -0.0154565 -0.00371319 -0.0157886 -0.0028981 -0.0160301 -0.00211319 -0.0162716 -0.00129811 -0.0164829 -0.000422639 -0.0167244 0 0zm0.330292 -0.325372l0 0.0460676 0 0 -0.0146414 0.000362262 -0.0144301 0.00108679 -0.0142188 0.00181131 -0.0140075 0.00244527 -0.0137056 0.0031396 -0.0135244 0.00380375 -0.0132226 0.00437733 -0.0128905 0.00501129 -0.0125584 0.00561506 -0.0123169 0.00621883 -0.0119245 0.00676222 -0.011532 0.00727543 -0.0111396 0.00781882 -0.0107773 0.00833203 -0.0103547 0.00881504 -0.00987164 0.00926787 -0.00938862 0.00969051 -0.00896598 0.0102037 -0.00845278 0.0105358 -0.00790939 0.0109584 -0.00742637 0.0113811 -0.00685279 0.0116829 -0.00627921 0.0120452 -0.00567544 0.0123169 -0.00510186 0.0126792 -0.0044679 0.0129207 -0.00383394 0.0132226 -0.00316979 0.0134339 -0.00247546 0.0136754 -0.00181131 0.0139773 -0.00111697 0.0141282 -0.000362262 0.0143093 -0.0458865 0 0.000422639 -0.0167244 0.00129811 -0.0164829 0.00211319 -0.0162716 0.0028981 -0.0160301 0.00371319 -0.0157886 0.00449809 -0.0154565 0.00519242 -0.0150942 0.00594713 -0.0147924 0.00664147 -0.0144301 0.00736599 -0.0140377 0.00793957 -0.013615 0.00863391 -0.0131924 0.00923768 -0.0127697 0.00984145 -0.0122867 0.0103547 -0.0117735 0.0109584 -0.0113207 0.0115018 -0.0107773 0.0119848 -0.0102037 0.0124678 -0.00966032 0.0129509 -0.00908674 0.0134037 -0.00848297 0.0138565 -0.00778863 0.0141886 -0.00718486 0.0146112 -0.00652072 0.0150037 -0.00585657 0.0153358 -0.00510186 0.0156376 -0.00440752 0.0159395 -0.00362262 0.0162414 -0.00286791 0.0164527 -0.00205282 0.0167244 -0.00126792 0.0169357 -0.000422639 0 0z"/>
   </g>
   <path class="fil7" d="M1.92554 1.81276l0 -0.396647 0.168633 0c0.0423846,0 0.0731467,0.00359243 0.0923466,0.0107169 0.0191999,0.0070943 0.0346262,0.0197433 0.0461884,0.0379469 0.011532,0.0182942 0.0172678,0.0390639 0.0172678,0.0625204 0,0.0297357 -0.00878485,0.0543997 -0.0262338,0.0737807 -0.017449,0.0193206 -0.0436828,0.0316074 -0.0784901,0.0365885 0.0173584,0.0101433 0.0316677,0.0212225 0.042928,0.0333281 0.0112603,0.0121056 0.0264149,0.0335394 0.0455243,0.0643619l0.0484827 0.0774033 -0.0957579 0 -0.0579015 -0.0863391c-0.0205886,-0.0308526 -0.0346262,-0.0502638 -0.0422035,-0.058294 -0.00757731,-0.00803014 -0.0156075,-0.0134641 -0.0240904,-0.0165131 -0.00851316,-0.00295847 -0.0218867,-0.00443771 -0.040362,-0.00443771l-0.016181 0 0 0.165584 -0.0801505 0zm0.0801505 -0.22895l0.0591996 0c0.03843,0 0.0624298,-0.0015698 0.0720298,-0.00479997 0.00953957,-0.00323017 0.0169961,-0.00884523 0.0224602,-0.016815 0.00534336,-0.00793957 0.00812071,-0.0178112 0.00812071,-0.0297357 0,-0.0133735 -0.00359243,-0.0240904 -0.0107169,-0.0323017 -0.0070943,-0.00824146 -0.0171773,-0.0134037 -0.0301885,-0.0156075 -0.00646034,-0.000845278 -0.0259621,-0.00129811 -0.0584751,-0.00129811l-0.0624298 0 0 0.100558z"/>
  </g>
 </g>
</svg>
